HIERARCHY
ROOT Pelvis
{
	OFFSET 0.000000 0.000000 0.000000
	CHANNELS 6 Xposition Yposition Zposition Xrotation Yrotation Zrotation
	JOINT LeftUpLeg_virtual
	{
		OFFSET 0.000000 0.000000 0.000000
		CHANNELS 3 Xrotation Yrotation Zrotation
		JOINT LeftUpLeg
		{
			OFFSET 18.735201 -5.666702 -4.541200
			CHANNELS 3 Xrotation Yrotation Zrotation
			JOINT LeftLeg
			{
				OFFSET -0.021200 -31.938179 0.493100
				CHANNELS 3 Xrotation Yrotation Zrotation
				JOINT LeftFoot
				{
					OFFSET 0.021200 -31.938179 -4.336299
					CHANNELS 3 Xrotation Yrotation Zrotation
					JOINT LeftToeBase
					{
						OFFSET 0.943001 -26.722000 15.023500
						CHANNELS 3 Xrotation Yrotation Zrotation
						End Site
						{
							OFFSET 0 0 0
						}
					}
				}
			}
		}
	}
	JOINT RightUpLeg_virtual
	{
		OFFSET 0.000000 0.000000 0.000000
		CHANNELS 3 Xrotation Yrotation Zrotation
		JOINT RightUpLeg
		{
			OFFSET -18.735201 -5.666702 -4.541200
			CHANNELS 3 Xrotation Yrotation Zrotation
			JOINT RightLeg
			{
				OFFSET 0.018946 -31.938133 0.493100
				CHANNELS 3 Xrotation Yrotation Zrotation
				JOINT RightFoot
				{
					OFFSET -0.018946 -31.938126 -4.336299
					CHANNELS 3 Xrotation Yrotation Zrotation
					JOINT RightToeBase
					{
						OFFSET -0.943001 -26.722004 15.023500
						CHANNELS 3 Xrotation Yrotation Zrotation
						End Site
						{
							OFFSET 0 0 0
						}
					}
				}
			}
		}
	}
	JOINT Hips_virtual
	{
		OFFSET 0.000000 0.000000 0.000000
		CHANNELS 3 Xrotation Yrotation Zrotation
		JOINT Hips
		{
			OFFSET -0.000000 -0.000000 -0.000000
			CHANNELS 3 Xrotation Yrotation Zrotation
			JOINT Spine
			{
				OFFSET 0.000000 10.199997 -0.299500
				CHANNELS 3 Xrotation Yrotation Zrotation
				JOINT Spine1
				{
					OFFSET 0.000000 11.900002 -1.516600
					CHANNELS 3 Xrotation Yrotation Zrotation
					JOINT Spine2
					{
						OFFSET 0.000000 13.600006 -2.842500
						CHANNELS 3 Xrotation Yrotation Zrotation
						JOINT Neck_virtual
						{
							OFFSET 0.000000 0.000000 0.000000
							CHANNELS 3 Xrotation Yrotation Zrotation
							JOINT Neck
							{
								OFFSET 0.000000 9.624100 -2.890100
								CHANNELS 3 Xrotation Yrotation Zrotation
								JOINT Head
								{
									OFFSET 0.000000 14.068802 -1.351900
									CHANNELS 3 Xrotation Yrotation Zrotation
									End Site
									{
										OFFSET 0 0 0
									}
								}
							}
						}
						JOINT LeftShoulder_virtual
						{
							OFFSET 0.000000 0.000000 0.000000
							CHANNELS 3 Xrotation Yrotation Zrotation
							JOINT LeftShoulder
							{
								OFFSET 15.263000 10.923401 -0.547700
								CHANNELS 3 Xrotation Yrotation Zrotation
								JOINT LeftArm
								{
									OFFSET 25.438599 -2.830597 -13.032500
									CHANNELS 3 Xrotation Yrotation Zrotation
									JOINT LeftForeArm
									{
										OFFSET 29.960503 0.000000 0.000000
										CHANNELS 3 Xrotation Yrotation Zrotation
										JOINT LeftHand
										{
											OFFSET 27.849251 0.000000 0.000000
											CHANNELS 3 Xrotation Yrotation Zrotation
											End Site
											{
												OFFSET 0 0 0
											}
										}
									}
								}
							}
						}
						JOINT RightShoulder_virtual
						{
							OFFSET 0.000000 0.000000 0.000000
							CHANNELS 3 Xrotation Yrotation Zrotation
							JOINT RightShoulder
							{
								OFFSET -15.263000 10.923401 -0.547700
								CHANNELS 3 Xrotation Yrotation Zrotation
								JOINT RightArm
								{
									OFFSET -25.438599 -2.830597 -13.032500
									CHANNELS 3 Xrotation Yrotation Zrotation
									JOINT RightForeArm
									{
										OFFSET -29.960503 0.000000 0.000000
										CHANNELS 3 Xrotation Yrotation Zrotation
										JOINT RightHand
										{
											OFFSET -27.849251 0.000000 0.000000
											CHANNELS 3 Xrotation Yrotation Zrotation
											End Site
											{
												OFFSET 0 0 0
											}
										}
									}
								}
							}
						}
					}
				}
			}
		}
	}
}
MOTION
Frames: 7
Frame Time: 0.03333333
-12.513718 189.201157 -5.840694 0.000000 0.000000 0.000000 17.945315 -17.764245 9.310709 -71.846575 5.305144 39.121906 75.837373 -4.825134 -29.341304 -20.050702 14.047104 -45.491515 0.000000 0.000000 0.000000 18.099728 -16.354048 8.772025 -94.980576 23.415693 -11.899313 125.717200 -16.873084 32.839847 -7.928154 -29.408117 40.336433 0.000000 0.000000 0.000000 17.993116 -18.485634 10.767149 -0.973516 -0.033305 0.088158 -2.706528 -10.411814 -5.021973 8.748800 -2.916685 2.536771 0.000000 0.000000 0.000000 -3.822171 -1.878991 2.803029 -1.696999 -1.790662 3.419519 0.000000 0.000000 0.000000 -1.048206 -1.989642 1.842970 -8.938399 -7.785376 27.134713 -48.096252 10.587790 -9.893040 121.309310 -59.541532 157.454848 0.000000 0.000000 0.000000 0.288796 -0.825751 3.717170 9.192182 20.975822 -11.274978 -47.644773 14.459551 8.448673 106.861021 69.263371 -155.793350 0.000000 0.000000 0.000000 
-12.012299 189.057083 -7.260475 0.000000 0.000000 0.000000 16.696336 -18.977395 10.584082 -78.591155 2.189891 35.454627 76.777562 -2.957663 -29.595018 -21.458685 18.194806 -40.431930 0.000000 0.000000 0.000000 17.017269 -17.934733 9.799850 -99.431107 19.752820 -14.127002 117.210882 -16.630947 33.880665 -4.893747 -27.611697 36.331825 0.000000 0.000000 0.000000 17.047773 -19.371446 11.900468 -1.004163 -0.003370 -0.004379 -0.052870 -10.583925 -4.039899 10.612548 -3.456181 2.976972 0.000000 0.000000 0.000000 -1.144600 -2.416589 3.198524 -0.621362 -1.787836 2.909628 0.000000 0.000000 0.000000 0.776675 -2.643563 1.823946 -7.340635 -10.576881 28.826277 -48.973047 15.493053 -3.933795 124.089033 -61.906581 162.566070 0.000000 0.000000 0.000000 2.626047 -1.380015 4.301825 9.824781 22.000808 -14.815462 -52.313949 21.567075 5.488801 104.616710 71.822642 -156.066694 0.000000 0.000000 0.000000 
-11.644192 188.146133 -8.645988 0.000000 0.000000 0.000000 14.982752 -19.579174 11.131982 -83.049397 -0.456799 30.666125 71.603018 0.833061 -29.797810 -19.526302 21.761435 -33.272420 0.000000 0.000000 0.000000 15.488086 -18.926302 10.150782 -99.575293 14.457342 -16.819693 104.006262 -19.770116 35.978076 -3.811490 -26.761323 31.026104 0.000000 0.000000 0.000000 15.624276 -19.617372 12.053666 -0.989471 -0.001200 -0.197613 2.262728 -10.593552 -2.706842 12.165414 -3.708208 3.125032 0.000000 0.000000 0.000000 1.714033 -2.660858 3.223925 0.483849 -1.769002 2.361866 0.000000 0.000000 0.000000 2.621533 -3.012693 1.631618 -5.526506 -13.632976 29.757765 -51.893257 15.985996 1.974829 128.674562 -63.725289 168.997445 0.000000 0.000000 0.000000 4.724384 -1.635237 4.520841 10.925812 22.661157 -19.124914 -57.896986 29.084609 3.791892 84.176180 76.522284 -137.653078 0.000000 0.000000 0.000000 
-11.542461 186.251587 -9.820511 0.000000 0.000000 0.000000 12.954115 -19.489981 11.077338 -84.170074 -2.325102 25.389087 61.487269 5.440530 -29.105765 -16.213057 24.661977 -26.172808 0.000000 0.000000 0.000000 13.557402 -19.070207 10.002467 -96.679156 8.570475 -19.430389 87.270399 -25.442035 36.896795 -3.264876 -25.166197 27.126796 0.000000 0.000000 0.000000 13.710141 -19.203034 11.718887 -0.919073 -0.002754 -0.341692 3.949579 -10.290762 -1.544915 13.307136 -3.541721 2.877740 0.000000 0.000000 0.000000 4.637505 -2.554549 2.899137 1.546626 -1.728547 1.789287 0.000000 0.000000 0.000000 4.258193 -2.931980 1.382772 -3.756047 -15.883521 30.727337 -55.650530 12.835528 7.413405 131.861884 -66.991773 173.783440 0.000000 0.000000 0.000000 6.598263 -1.543934 4.294153 12.242536 22.743147 -23.566330 -62.062821 33.528405 2.023637 35.958176 77.142151 -90.563247 0.000000 0.000000 0.000000 
-11.777235 183.483917 -10.331619 0.000000 0.000000 0.000000 10.806007 -18.726868 10.798403 -81.519257 -3.400681 20.912677 48.261154 9.153858 -27.407529 -14.581942 25.938738 -21.664317 0.000000 0.000000 0.000000 11.167242 -18.461981 9.695010 -92.754194 4.062255 -21.013087 70.274928 -30.595003 34.684992 0.826702 -20.955282 27.057794 0.000000 0.000000 0.000000 11.377412 -18.400463 11.512110 -0.862591 -0.003994 -0.340970 5.040426 -9.734160 -0.848645 14.036110 -2.997449 2.247151 0.000000 0.000000 0.000000 7.289683 -2.192464 2.396692 2.533547 -1.647241 1.199640 0.000000 0.000000 0.000000 5.495412 -2.480344 1.190022 -2.275840 -16.788270 32.233340 -59.233798 8.746256 11.504649 131.442032 -73.201842 174.950883 0.000000 0.000000 0.000000 8.066519 -1.224958 3.661405 13.645547 22.042605 -27.656421 -62.905940 33.241028 -1.614095 5.634336 70.594841 -60.288919 0.000000 0.000000 0.000000 
-12.048153 179.673187 -10.138729 0.000000 0.000000 0.000000 8.431732 -17.831165 10.642481 -76.900069 -3.717356 18.284015 36.052337 10.816290 -25.866888 -15.998634 25.449765 -19.191829 0.000000 0.000000 0.000000 8.447109 -17.402272 9.543596 -89.164274 1.962883 -21.583514 58.942654 -32.206316 31.117188 5.824459 -14.517835 28.960026 0.000000 0.000000 0.000000 8.723465 -17.697259 11.627100 -0.904591 -0.003850 -0.217245 6.003913 -9.139509 -0.436516 14.438909 -2.346990 1.378387 0.000000 0.000000 0.000000 9.328548 -1.776716 1.880209 3.328754 -1.522617 0.686973 0.000000 0.000000 0.000000 6.331112 -1.813295 1.044969 -1.224745 -16.246216 34.429279 -61.672216 6.327468 14.025077 124.361667 -80.965295 169.166287 0.000000 0.000000 0.000000 8.853109 -0.857333 2.789086 14.843461 20.230720 -31.360595 -61.563029 28.691275 -6.693159 -3.034954 65.069170 -50.132824 0.000000 0.000000 0.000000 
-12.529072 175.153610 -9.045147 0.000000 0.000000 0.000000 5.592711 -17.371065 10.557546 -73.225802 -3.071008 18.077352 30.339711 10.889250 -26.152820 -20.039377 24.687551 -16.295052 0.000000 0.000000 0.000000 5.439362 -16.668035 9.525037 -86.859181 2.186599 -22.036043 57.953124 -30.608840 29.767778 5.757621 -9.446658 29.814729 0.000000 0.000000 0.000000 5.683542 -17.370682 11.824894 -0.920870 -0.010523 -0.081191 7.334445 -8.739908 0.073916 14.592117 -1.824200 0.500667 0.000000 0.000000 0.000000 10.533077 -1.397956 1.347555 3.818312 -1.371714 0.306235 0.000000 0.000000 0.000000 6.887587 -1.198776 0.941574 -0.443863 -14.918192 37.313183 -62.559642 6.263770 14.840323 64.646299 -87.181306 110.253166 0.000000 0.000000 0.000000 9.150800 -0.585347 1.854609 15.742341 17.277481 -35.405713 -60.578696 21.775820 -10.959389 -3.965160 62.518798 -46.523253 0.000000 0.000000 0.000000 
